<?xml version="1.0" encoding="utf-8"?>
<!-- Generator: Adobe Illustrator 19.0.0, SVG Export Plug-In . SVG Version: 6.00 Build 0)  -->
<svg version="1.1" id="Layer_1" xmlns="http://www.w3.org/2000/svg" xmlns:xlink="http://www.w3.org/1999/xlink" x="0px" y="0px"
	 viewBox="-427 232.5 78.7 84.8" style="enable-background:new -427 232.5 78.7 84.8;" xml:space="preserve">
<style type="text/css">
	.st0{fill:#EFEFEF;}
</style>
<g>
	<path class="st0" d="M-395.4,293.2h30.7c4.1,0,8-3.1,8.9-7.1l6.4-27.4h0h-3.9h-6.5l4.5-16.8c0.8-3.1-1-6.2-4-7.1l-3.9-1.1
		c-3.1-0.8-6.2,1-7,4l-3.6,13.4c-0.1,0-0.1,0-0.2,0l-5.7,0v-1.9c0-3.2-2.6-5.7-5.7-5.7l-7.9,0.1c-3.2,0-5.7,2.6-5.7,5.8v9.4h-7.2
		l-3.1-13.9c-0.7-3-3.5-5.2-6.5-5.2h-10v3.8h10c1.2,0,2.5,1,2.8,2.2l9,40.4C-403.4,290.1-399.4,293.2-395.4,293.2z M-366.6,238.7
		c0.3-1,1.3-1.6,2.3-1.3l3.9,1.1c1,0.3,1.6,1.4,1.3,2.4l-4.8,17.8h-4.5V257c0-1.7-0.8-3.3-1.9-4.3L-366.6,238.7z M-382,254.9l7.9,0
		c1.1,0,1.9,0.9,1.9,2v1.8h-11.7v-1.9C-383.9,255.8-383,254.9-382,254.9z M-395.4,249.3c0-1.1,0.9-1.9,1.9-1.9l7.9-0.1
		c1,0,1.9,0.8,1.9,1.9v2.2c-2.3,0.7-4,2.9-4,5.5v1.9h-7.7V249.3z M-399.2,262.6h3.8h7.7h3.8h11.7h3.8h14.1l-5.3,22.7
		c-0.5,2.2-2.9,4.1-5.2,4.1h-30.7c-2.2,0-4.6-1.9-5.1-4.1l-5-22.7H-399.2z"/>
	<path class="st0" d="M-397.3,297c-5.3,0-9.6,4.3-9.6,9.6c0,5.3,4.3,9.6,9.6,9.6c5.3,0,9.6-4.3,9.6-9.6
		C-387.7,301.3-392,297-397.3,297z M-397.3,312.3c-3.2,0-5.7-2.6-5.7-5.7c0-3.2,2.6-5.7,5.7-5.7c3.2,0,5.7,2.6,5.7,5.7
		C-391.6,309.8-394.1,312.3-397.3,312.3z"/>
	<path class="st0" d="M-362.8,297c-5.3,0-9.6,4.3-9.6,9.6c0,5.3,4.3,9.6,9.6,9.6s9.6-4.3,9.6-9.6C-353.3,301.3-357.6,297-362.8,297z
		 M-362.8,312.3c-3.2,0-5.7-2.6-5.7-5.7c0-3.2,2.6-5.7,5.7-5.7c3.2,0,5.7,2.6,5.7,5.7C-357.1,309.8-359.7,312.3-362.8,312.3z"/>
</g>
</svg>
