<?xml version="1.0" encoding="utf-8"?>
<!-- Generator: Adobe Illustrator 19.0.0, SVG Export Plug-In . SVG Version: 6.00 Build 0)  -->
<svg version="1.1" id="Layer_1" xmlns="http://www.w3.org/2000/svg" xmlns:xlink="http://www.w3.org/1999/xlink" x="0px" y="0px"
	 viewBox="-15 232 96 44.3" style="enable-background:new -15 232 96 44.3;" xml:space="preserve">
<style type="text/css">
	.st0{fill:#313739;}
</style>
<g>
	<path class="st0" d="M7.7,247.9c-3.1-3.1-8.2-3.1-11.3,0c-3.1,3.1-3.1,8.2,0,11.3s8.2,3.1,11.3,0C10.8,256,10.8,251,7.7,247.9z
		 M-2.1,257.6c-2.3-2.3-2.3-5.9,0-8.2s5.9-2.3,8.2,0s2.3,5.9,0,8.2S0.2,259.9-2.1,257.6z"/>
	<path class="st0" d="M79.4,254.7c0.4-0.4,0.4-1.1,0-1.5l-7.8-8.5c-0.2-0.2-0.5-0.4-0.8-0.4l-45,0c-1.8-3.1-4.4-5.9-8.2-7.8
		c-7-3.5-15.6-2.6-21.6,2.6c-9,7.8-9,21.8,0,29.6c5.9,5.2,14.5,6.1,21.6,2.6c3.8-1.9,6.5-4.7,8.2-7.8h8.1c0.4,0,0.8-0.2,1-0.6
		l2.3-4.1l3.9,4.2c0.5,0.5,1.2,0.5,1.7,0l4.1-4.5l4.3,4.5c0.5,0.5,1.3,0.5,1.7,0l3.9-4.4l4.2,4.5c0.4,0.5,1.1,0.5,1.6,0l3.9-4.3
		l2.3,4.1c0.2,0.4,0.6,0.6,1,0.6h1.2c0.3,0,0.6-0.1,0.8-0.4L79.4,254.7z M-3.5,266.3c-6.8-6.8-6.8-17.8,0-24.5
		c6.8-6.8,17.8-6.8,24.5,0c9.2,9.2,3.7,20.9,0,24.5C14.3,273,3.3,273-3.5,266.3z M70.3,261.4l-2.7-4.8c-0.2-0.3-0.5-0.5-0.8-0.5
		s-0.7,0.1-0.9,0.4l-4.1,4.5l-4.2-4.5c-0.2-0.2-0.5-0.4-0.8-0.4c0,0,0,0,0,0c-0.3,0-0.6,0.1-0.8,0.4l-3.9,4.5l-4.3-4.5
		c-0.2-0.2-0.5-0.4-0.8-0.3c-0.3,0-0.6,0.1-0.8,0.4l-4.1,4.5l-4.1-4.5c-0.2-0.3-0.6-0.4-0.9-0.4c-0.4,0-0.7,0.2-0.8,0.5l-2.8,4.8
		h-6.4c0,0,0,0,0-0.1c0-0.1,0.1-0.2,0.1-0.2c1.8-4.6,1.8-9.8,0-14.4c0,0,0,0,0-0.1c0,0,0,0,0-0.1l43.4,0l2.8,3.1l-24.5,0
		c-0.6,0-1.1,0.5-1.1,1.1c0,0.3,0.1,0.6,0.3,0.8c0.2,0.2,0.5,0.3,0.8,0.3l26.5,0l2,2.1L70.3,261.4L70.3,261.4z"/>
	<path class="st0" d="M42.6,249.7h-2.5c-0.6,0-1.1,0.5-1.1,1.1c0,0.3,0.1,0.6,0.3,0.8s0.5,0.3,0.8,0.3h2.5c0.6,0,1.1-0.5,1.1-1.1
		C43.7,250.2,43.2,249.7,42.6,249.7z"/>
</g>
</svg>
