<?xml version="1.0" encoding="utf-8"?>
<!-- Generator: Adobe Illustrator 19.0.0, SVG Export Plug-In . SVG Version: 6.00 Build 0)  -->
<svg version="1.1" id="Layer_1" xmlns="http://www.w3.org/2000/svg" xmlns:xlink="http://www.w3.org/1999/xlink" x="0px" y="0px"
	 viewBox="0 0 80 80" style="enable-background:new 0 0 80 80;" xml:space="preserve">
<path d="M40,3.3c20.2,0,36.7,16.5,36.7,36.7c0,20.2-16.5,36.7-36.7,36.7C19.8,76.7,3.3,60.2,3.3,40C3.3,19.8,19.8,3.3,40,3.3z M40,0
	C17.9,0,0,17.9,0,40c0,22.1,17.9,40,40,40c22.1,0,40-17.9,40-40C80,17.9,62.1,0,40,0L40,0z"/>
<path d="M36.7,55.1c-0.4,0-0.9-0.2-1.2-0.5L22.1,41.2c-0.6-0.6-0.6-1.7,0-2.4c0.6-0.7,1.7-0.7,2.4,0l12,12l18.9-28.4
	c0.5-0.8,1.6-1,2.3-0.5c0.8,0.5,1,1.5,0.5,2.3l-20,30.1c-0.3,0.4-0.7,0.7-1.2,0.7C36.9,55.1,36.8,55.1,36.7,55.1L36.7,55.1z"/>
</svg>
