<?xml version="1.0" encoding="utf-8"?>
<!-- Generator: Adobe Illustrator 19.0.0, SVG Export Plug-In . SVG Version: 6.00 Build 0)  -->
<svg version="1.1" id="Layer_1" xmlns="http://www.w3.org/2000/svg" xmlns:xlink="http://www.w3.org/1999/xlink" x="0px" y="0px"
	 viewBox="-431 221 96 90.5" style="enable-background:new -431 221 96 90.5;" xml:space="preserve">
<style type="text/css">
	.st0{fill:#313739;}
</style>
<path class="st0" d="M-383.8,290.9c-8.6,0-14.4-4.9-14.4-12.3c0-1,0.8-1.8,1.8-1.8c1,0,1.8,0.8,1.8,1.8c0,6.4,5.5,8.6,10.7,8.6
	c5.2,0,10.7-2.3,10.7-8.6c0-5-2.1-6.3-9.5-9.9l-4-2c-7.2-3.6-11.6-5.7-11.6-13.2c0-7.4,5.8-12.4,14.4-12.4c8.5,0,14.2,5,14.2,12.4
	c0,1-0.8,1.8-1.8,1.8c-1,0-1.8-0.8-1.8-1.8c0-6.4-5.5-8.7-10.6-8.7c-5.2,0-10.7,2.3-10.7,8.7c0,5,2.1,6.3,9.6,9.9l4,2
	c7.2,3.6,11.6,5.7,11.6,13.2C-369.4,285.9-375.2,290.9-383.8,290.9z"/>
<path class="st0" d="M-384,244.7c-1,0-1.8-0.8-1.8-1.8v-6.2c0-1,0.8-1.8,1.8-1.8s1.8,0.8,1.8,1.8v6.2
	C-382.2,243.9-383,244.7-384,244.7z"/>
<path class="st0" d="M-384,297.2c-1,0-1.8-0.8-1.8-1.8V289c0-1,0.8-1.8,1.8-1.8s1.8,0.8,1.8,1.8v6.3
	C-382.2,296.3-383,297.2-384,297.2z"/>
<path class="st0" d="M-384,225.7c22.2,0,40.3,18.1,40.3,40.3c0,22.2-18.1,40.3-40.3,40.3s-40.3-18.1-40.3-40.3
	C-424.3,243.8-406.2,225.7-384,225.7z M-384,222c-24.3,0-44,19.7-44,44s19.7,44,44,44s44-19.7,44-44S-359.7,222-384,222L-384,222z"
	/>
</svg>
