<?xml version="1.0" encoding="utf-8"?>
<!-- Generator: Adobe Illustrator 19.0.0, SVG Export Plug-In . SVG Version: 6.00 Build 0)  -->
<svg version="1.1" id="Layer_1" xmlns="http://www.w3.org/2000/svg" xmlns:xlink="http://www.w3.org/1999/xlink" x="0px" y="0px"
	 viewBox="-427 232.5 66.5 54.2" style="enable-background:new -427 232.5 66.5 54.2;" xml:space="preserve">
<style type="text/css">
	.st0{fill:#313739;}
</style>
<path class="st0" d="M-366.5,254.5H-402v-2.9c0-4.3-3.5-7.8-7.8-7.8h-8.3c-1.9,0-3.6,0.7-5,1.8v-10.6c0-0.8-0.6-1.4-1.4-1.4
	c-0.8,0-1.4,0.6-1.4,1.4v16.6v4.4l0,0v18.8v9.1c0,0.8,0.6,1.4,1.4,1.4c0.8,0,1.4-0.6,1.4-1.4v-7.7h58.4v7.7c0,0.8,0.6,1.4,1.4,1.4
	c0.8,0,1.4-0.6,1.4-1.4v-9.1v-9.4v-6.1C-361.9,256.6-364,254.5-366.5,254.5z M-418.1,246.6h8.3c2.7,0,5,2.2,5,5v2.9h-18.3v-2.9
	C-423.1,248.8-420.9,246.6-418.1,246.6z M-423.1,257.4h7.8v15.9h-7.8V257.4z M-412.5,273.3v-15.9h46c1,0,1.8,0.8,1.8,1.8v6.1v7.9
	H-412.5z"/>
</svg>
