<?xml version="1.0" encoding="utf-8"?>
<!-- Generator: Adobe Illustrator 19.0.0, SVG Export Plug-In . SVG Version: 6.00 Build 0)  -->
<svg version="1.1" id="Layer_1" xmlns="http://www.w3.org/2000/svg" xmlns:xlink="http://www.w3.org/1999/xlink" x="0px" y="0px"
	 viewBox="-11.5 234 42.2 60.2" style="enable-background:new -11.5 234 42.2 60.2;" xml:space="preserve">
<style type="text/css">
	.st0{fill:#313739;}
</style>
<g>
	<path class="st0" d="M25.3,258.2v-6.4c0-4.1-1.5-7.9-4.5-10.8c-2.9-2.9-6.7-4.5-10.8-4.5c-8.4,0-15.3,6.8-15.3,15.3v6.4
		c-2.3,1-3.9,3.2-3.9,5.7v21.6c0,3.4,2.8,6.2,6.2,6.2h26c3.4,0,6.2-2.8,6.2-6.2v-21.6C29.2,261.3,27.7,259.1,25.3,258.2z M10,238.6
		c3.5,0,6.8,1.4,9.4,3.8c2.5,2.5,3.8,5.8,3.8,9.3v7.2c0,0.5,0.3,0.9,0.8,1c1.8,0.4,3.1,2.1,3.1,3.9v21.6c0,2.3-1.8,4.1-4.1,4.1H-2.9
		c-2.3,0-4.1-1.8-4.1-4.1v-21.6c0-1.8,1.3-3.5,3.1-3.9c0.5-0.2,0.8-0.6,0.8-1v-7.2C-3.1,244.5,2.8,238.6,10,238.6z"/>
	<path class="st0" d="M10,267.9c-2.6,0-4.7,2.1-4.7,4.7c0,1.4,0.6,2.7,1.8,3.7v3.4c0,1.6,1.3,3,3,3s3-1.3,3-3v-3.4
		c1.1-0.9,1.8-2.2,1.8-3.7C14.8,270,12.6,267.9,10,267.9z M10.9,275.9v3.8c0,0.5-0.4,0.9-0.9,0.9s-0.9-0.4-0.9-0.9V276l0-0.1
		c0.1-0.4-0.1-0.8-0.5-1c-0.8-0.5-1.3-1.3-1.3-2.3c0-1.4,1.2-2.6,2.6-2.6s2.6,1.2,2.6,2.6c0,0.9-0.5,1.8-1.3,2.3
		C11,275,10.8,275.5,10.9,275.9z"/>
	<path class="st0" d="M2.1,259.8h16c0.6,0,1.1-0.4,1.1-1v-7c0-2.4-0.9-4.7-2.6-6.4c-1.7-1.7-4-2.6-6.4-2.6c-5,0-9.1,4.1-9.1,9.1v7
		C1,259.3,1.5,259.8,2.1,259.8z M3.1,257.7v-5.9c0-3.8,3.1-7,7-7c1.9,0,3.6,0.7,4.9,2c1.3,1.3,2,3.1,2,4.9v5.9H3.1z"/>
</g>
</svg>
