<?xml version="1.0" encoding="utf-8"?>
<!-- Generator: Adobe Illustrator 19.0.0, SVG Export Plug-In . SVG Version: 6.00 Build 0)  -->
<svg version="1.1" id="Isolation_Mode" xmlns="http://www.w3.org/2000/svg" xmlns:xlink="http://www.w3.org/1999/xlink" x="0px"
	 y="0px" viewBox="-431.8 159 60 76.7" style="enable-background:new -431.8 159 60 76.7;" xml:space="preserve">
<style type="text/css">
	.st0{fill:#EFEFEF;}
</style>
<g>
	<path class="st0" d="M-387.9,169.5c0.5-0.5,0.5-1.2,0-1.7l-3.2-3.2c-0.8-0.8-2.2-0.8-3,0l-1.5,1.5c-0.5,0.5-0.5,1.2,0,1.7
		c0.5,0.5,1.2,0.5,1.7,0l1.3-1.3l3,3c0.2,0.2,0.5,0.4,0.9,0.4C-388.4,169.9-388.1,169.7-387.9,169.5z"/>
	<path class="st0" d="M-416.8,210.1c0.8,0,1.6-0.3,2.2-0.9l6-6c0.6-0.6,0.9-1.3,0.9-2.2s-0.3-1.6-0.9-2.2l-2.2-2.2L-393,179l2.2,2.2
		c0.6,0.6,1.3,0.9,2.2,0.9c0.8,0,1.6-0.3,2.2-0.9l6-6c0.6-0.6,0.9-1.3,0.9-2.2c0-0.8-0.3-1.6-0.9-2.2l-9.9-9.9
		c-1.2-1.2-3.2-1.2-4.3,0l-6,6c-0.6,0.6-0.9,1.3-0.9,2.2c0,0.8,0.3,1.6,0.9,2.2l1.7,1.7l-17.7,17.7l-1.7-1.7c-1.2-1.2-3.2-1.2-4.3,0
		l-6,6c-1.2,1.2-1.2,3.1,0,4.3l9.9,9.9C-418.4,209.8-417.6,210.1-416.8,210.1z M-399.1,169.5c-0.2-0.2-0.2-0.3-0.2-0.4
		c0-0.1,0-0.3,0.2-0.4l6-6c0.2-0.2,0.3-0.2,0.4-0.2c0.1,0,0.3,0,0.4,0.2l9.9,9.9c0.2,0.2,0.2,0.3,0.2,0.4c0,0.1,0,0.3-0.2,0.4l-6,6
		c-0.2,0.2-0.6,0.2-0.9,0L-399.1,169.5z M-397.4,174.7l2.6,2.6l-17.7,17.7l-2.6-2.6L-397.4,174.7z M-427.2,196.7l6-6
		c0.2-0.2,0.3-0.2,0.4-0.2c0.1,0,0.3,0,0.4,0.2l9.9,9.9c0.1,0.1,0.2,0.3,0.2,0.4c0,0.2-0.1,0.3-0.2,0.4l-6,6
		c-0.2,0.2-0.3,0.2-0.4,0.2c-0.1,0-0.3,0-0.4-0.2l-9.9-9.9C-427.4,197.3-427.4,197-427.2,196.7z"/>
	<path class="st0" d="M-373.7,195.1l-9.9-9.9c-1.2-1.2-3.2-1.2-4.3,0l-6,6c-1.2,1.2-1.2,3.1,0,4.3l1.7,1.7L-410,215l-1.7-1.7
		c-1.2-1.2-3.2-1.2-4.3,0l-6,6c-0.6,0.6-0.9,1.3-0.9,2.2c0,0.8,0.3,1.6,0.9,2.2l9.9,9.9c0.6,0.6,1.3,0.9,2.2,0.9s1.6-0.3,2.2-0.9
		l6-6c1.2-1.2,1.2-3.1,0-4.3l-2.2-2.2l17.7-17.7l2.2,2.2c0.6,0.6,1.3,0.9,2.2,0.9c0.8,0,1.6-0.3,2.2-0.9l6-6
		c0.6-0.6,0.9-1.3,0.9-2.2C-372.8,196.4-373.1,195.7-373.7,195.1z M-403.5,224.9c0.2,0.2,0.2,0.6,0,0.9l-6,6
		c-0.2,0.2-0.3,0.2-0.4,0.2c-0.2,0-0.3-0.1-0.4-0.2l-9.9-9.9c-0.2-0.2-0.2-0.3-0.2-0.4c0-0.1,0-0.3,0.2-0.4l6-6
		c0.2-0.2,0.3-0.2,0.4-0.2c0.1,0,0.3,0,0.4,0.2l2.6,2.6c0,0,0,0,0,0c0,0,0,0,0,0l4.3,4.3c0,0,0,0,0,0c0,0,0,0,0,0L-403.5,224.9z
		 M-405.6,219.3l-2.6-2.6l17.7-17.7l2.6,2.6L-405.6,219.3z M-375.4,197.7l-6,6c-0.2,0.2-0.3,0.2-0.4,0.2c-0.1,0-0.3,0-0.4-0.2l-3-3
		c0,0,0,0,0,0c0,0,0,0,0,0l-4.3-4.3l0,0h0l-2.6-2.6c-0.2-0.2-0.2-0.6,0-0.9l6-6c0.1-0.1,0.3-0.2,0.4-0.2c0.1,0,0.3,0,0.4,0.2
		l9.9,9.9c0.2,0.2,0.2,0.3,0.2,0.4C-375.2,197.3-375.2,197.5-375.4,197.7z"/>
	<path class="st0" d="M-384.3,188.8c-0.8-0.8-2.2-0.8-3,0l-1.5,1.5c-0.5,0.5-0.5,1.2,0,1.7c0.5,0.5,1.2,0.5,1.7,0l1.3-1.3l3,3
		c0.2,0.2,0.5,0.4,0.9,0.4c0.3,0,0.6-0.1,0.9-0.4c0.5-0.5,0.5-1.2,0-1.7L-384.3,188.8z"/>
</g>
</svg>
