<?xml version="1.0" encoding="utf-8"?>
<!-- Generator: Adobe Illustrator 19.0.0, SVG Export Plug-In . SVG Version: 6.00 Build 0)  -->
<svg version="1.1" id="Layer_1" xmlns="http://www.w3.org/2000/svg" xmlns:xlink="http://www.w3.org/1999/xlink" x="0px" y="0px"
	 viewBox="-429 230.5 75.2 95.5" style="enable-background:new -429 230.5 75.2 95.5;" xml:space="preserve">
<style type="text/css">
	.st0{fill:#EFEFEF;}
</style>
<g>
	<path class="st0" d="M-394.5,231.5c-1.4,0-2.6,1.2-2.6,2.6v25.8c0,4.3-3.5,7.7-7.7,7.7c-1.4,0-2.6,1.2-2.6,2.6v46.4
		c0,1.4-1.2,2.6-2.6,2.6c-1.4,0-2.6-1.2-2.6-2.6v-46.4c0-1.4-1.2-2.6-2.6-2.6c-4.3,0-7.7-3.5-7.7-7.7v-25.8c0-1.4-1.2-2.6-2.6-2.6
		c-1.4,0-2.6,1.2-2.6,2.6v25.8c0,6.2,4.4,11.4,10.3,12.6v44.1c0,4.3,3.5,7.7,7.7,7.7c4.3,0,7.7-3.5,7.7-7.7v-44.1
		c5.9-1.2,10.3-6.4,10.3-12.6v-25.8C-391.9,232.7-393,231.5-394.5,231.5z"/>
	<path class="st0" d="M-415.1,257.3c1.4,0,2.6-1.2,2.6-2.6v-20.6c0-1.4-1.2-2.6-2.6-2.6c-1.4,0-2.6,1.2-2.6,2.6v20.6
		C-417.7,256.1-416.5,257.3-415.1,257.3z"/>
	<path class="st0" d="M-404.8,257.3c1.4,0,2.6-1.2,2.6-2.6v-20.6c0-1.4-1.2-2.6-2.6-2.6c-1.4,0-2.6,1.2-2.6,2.6v20.6
		C-407.4,256.1-406.2,257.3-404.8,257.3z"/>
	<path class="st0" d="M-368.7,231.5c-7.1,0-12.9,5.8-12.9,12.9v25.8c0,6.2,4.4,11.4,10.3,12.6v33.8c0,4.3,3.5,7.7,7.7,7.7
		c4.3,0,7.7-3.5,7.7-7.7v-72.2C-355.8,237.3-361.6,231.5-368.7,231.5z M-360.9,316.6c0,1.4-1.2,2.6-2.6,2.6c-1.4,0-2.6-1.2-2.6-2.6
		v-36.1c0-1.4-1.2-2.6-2.6-2.6c-4.3,0-7.7-3.5-7.7-7.7v-25.8c0-4.3,3.5-7.7,7.7-7.7c4.3,0,7.7,3.5,7.7,7.7V316.6z"/>
</g>
</svg>
