<?xml version="1.0" encoding="utf-8"?>
<!-- Generator: Adobe Illustrator 19.0.0, SVG Export Plug-In . SVG Version: 6.00 Build 0)  -->
<svg version="1.1" id="Isolation_Mode" xmlns="http://www.w3.org/2000/svg" xmlns:xlink="http://www.w3.org/1999/xlink" x="0px"
	 y="0px" viewBox="-203 312.5 57.8 54" style="enable-background:new -203 312.5 57.8 54;" xml:space="preserve">
<g>
	<path d="M-150.6,352h-1.4c3.6-3.6,5.5-8.2,5.5-12.9c0-5.5-2.6-10.7-7.3-14.5c-0.4-0.4-1.1-0.3-1.4,0.1c-0.4,0.4-0.3,1.1,0.1,1.4
		c4.2,3.5,6.5,8.1,6.5,13c0,4.2-1.8,8.3-5.1,11.6v-1.6c0-0.6-0.4-1-1-1s-1,0.4-1,1v3.8c0,0.6,0.4,1,1,1h4c0.6,0,1-0.4,1-1
		c0-0.3-0.1-0.5-0.3-0.7C-150.1,352.1-150.4,352-150.6,352z"/>
	<path d="M-193.8,324.1h-4c-0.6,0-1,0.4-1,1s0.4,1,1,1h1.4c-3.6,3.7-5.6,8.2-5.6,13c0,5.5,2.6,10.6,7.3,14.5
		c0.2,0.1,0.4,0.2,0.6,0.2c0.3,0,0.6-0.1,0.8-0.4c0.4-0.4,0.3-1.1-0.1-1.4c-4.2-3.5-6.5-8.1-6.5-13c0-4.3,1.8-8.5,5.2-11.8v1.5
		c0,0.6,0.4,1,1,1s1-0.4,1-1v-3.7C-192.8,324.6-193.2,324.1-193.8,324.1z"/>
	<path d="M-164.5,313.5h-20.6c-2.8,0-5.1,2.3-5.1,5.1v40.9c0,2.8,2.3,5.1,5.1,5.1h20.6c2.8,0,5.1-2.3,5.1-5.1v-40.9
		C-159.4,315.8-161.7,313.5-164.5,313.5z M-185.2,315.5h20.6c1.7,0,3.1,1.4,3.1,3.1v40.9h0c0,1.7-1.4,3.1-3.1,3.1h-20.6
		c-1.7,0-3.1-1.4-3.1-3.1v-40.9C-188.3,316.9-186.9,315.5-185.2,315.5z"/>
	<path d="M-174.8,355.3c-1.7,0-3.1,1.4-3.1,3.1c0,1.7,1.4,3.1,3.1,3.1c1.7,0,3.1-1.4,3.1-3.1c0-0.8-0.3-1.6-0.9-2.2
		C-173.2,355.6-174,355.3-174.8,355.3z M-174.8,357.3c0.6,0,1.1,0.5,1.1,1.1c0,0.3-0.1,0.6-0.3,0.8s-0.5,0.3-0.8,0.3
		c-0.6,0-1.1-0.5-1.1-1.1C-175.9,357.8-175.4,357.3-174.8,357.3z"/>
	<path d="M-185.7,354.8h21.8c0.6,0,1.1-0.4,1.1-1v-33.4c0-0.5-0.5-1-1.1-1h-21.8c-0.6,0-1.1,0.4-1.1,1v33.4
		C-186.8,354.3-186.3,354.8-185.7,354.8z M-184.7,352.8v-31.4h19.6v31.4H-184.7z"/>
</g>
</svg>
