<?xml version="1.0" encoding="utf-8"?>
<!-- Generator: Adobe Illustrator 19.0.0, SVG Export Plug-In . SVG Version: 6.00 Build 0)  -->
<svg version="1.1" id="Layer_1" xmlns="http://www.w3.org/2000/svg" xmlns:xlink="http://www.w3.org/1999/xlink" x="0px" y="0px"
	 viewBox="0 0 80 80" style="enable-background:new 0 0 80 80;" xml:space="preserve">
<style type="text/css">
	.st0{fill:#FFFFFF;}
</style>
<g>
	<path class="st0" d="M40,0C17.9,0,0,17.9,0,40c0,22.1,17.9,40,40,40c22.1,0,40-17.9,40-40C80,17.9,62.1,0,40,0z M40,76.7
		C19.8,76.7,3.3,60.2,3.3,40C3.3,19.8,19.8,3.3,40,3.3c20.2,0,36.7,16.5,36.7,36.7C76.7,60.2,60.2,76.7,40,76.7z"/>
	<path class="st0" d="M40,49.3c1.4,0,2.5-1.1,2.5-2.5V21.3c0-1.4-1.1-2.5-2.5-2.5c-1.4,0-2.5,1.1-2.5,2.5v25.5
		C37.5,48.2,38.6,49.3,40,49.3z"/>
	<path class="st0" d="M40,54.8c-1.8,0-3.2,1.4-3.2,3.2c0,1.8,1.4,3.2,3.2,3.2c1.8,0,3.2-1.4,3.2-3.2C43.2,56.2,41.8,54.8,40,54.8z"
		/>
</g>
</svg>
