<?xml version="1.0" encoding="utf-8"?>
<!-- Generator: Adobe Illustrator 19.0.0, SVG Export Plug-In . SVG Version: 6.00 Build 0)  -->
<svg version="1.1" id="Layer_1" xmlns="http://www.w3.org/2000/svg" xmlns:xlink="http://www.w3.org/1999/xlink" x="0px" y="0px"
	 viewBox="-429 159 79.8 100" style="enable-background:new -429 159 79.8 100;" xml:space="preserve">
<style type="text/css">
	.st0{fill:#EFEFEF;}
</style>
<g>
	<path class="st0" d="M-351.7,200.9c-0.1-1.1-1.1-1.8-2.2-1.7c-1.1,0.1-1.8,1.1-1.7,2.2c1.1,8.8,1.7,18.6-1.6,24.9
		c-0.1,0.2-8.3,15.3-33,25.4c-2,0.8-4.2,0.5-6.4-0.9c-4.9-3-8.6-10.2-9-14.9c-0.5-6.4-0.8-37.1,2.9-47.3c0.5-1.4,1.7-2.2,3.4-2.5
		c3.3-0.5,7.3,1.2,8.6,3c1.3,1.8,2.2,4,3.1,6.4c1.6,4.2,3.5,8.9,8.3,11.1c8,3.6,12.1,0.3,13.1-1.2c0.6-1,0.4-2.1,0.1-3.3
		c-0.5-2.6-0.5-3.6,1-4.2c1-0.4,1.2-0.5,2.1,1.6c0.5,1.1,1.1,2.3,2.4,2.7c1,0.3,2-0.1,3.1-1.1c2.5-2.4,5.6-8.8,3.6-16.3
		c-2.3-8.7-9.3-18.2-16.5-18.8c-2-3.3-5.6-5.4-9.5-5.4c0,0,0,0,0,0c-2.1,0-5.8,0.6-9.2,4.5c-2.6,0.6-5.9,2.3-8.6,7.1
		c-0.8,1.5-1.5,3.2-2,5c-2.1-1.8-4.6-2.9-7.2-2.9c0,0,0,0,0,0c-2.2,0-6.1,1.1-9.3,5.8c-2.4,0.8-5.3,2.8-7.7,7.1
		c-5.2,9.5-6,31.5,14.2,49.3c0.6,5.7,4.8,14,10.8,17.7c2.1,1.3,4.2,1.9,6.2,1.9c1.3,0,2.5-0.2,3.7-0.7c26.1-10.6,35-27,35-27.2
		C-349.9,220.8-350.5,210.7-351.7,200.9z M-379.7,164.7C-379.7,164.7-379.7,164.7-379.7,164.7c1.9,0,3.8,0.7,5.2,2.1
		c-1,0.5-2,1.2-3,2c-1.3-1.6-3.1-2.8-5-3.4C-381.7,165-380.7,164.7-379.7,164.7z M-387.5,170.1c0.5-0.8,1-1.6,1.5-2.2
		c2.2,0.1,4.2,1.3,5.5,3.1c-0.8,0.6-1.6,1.3-2.4,1.9c-2.3,1.5-4.7,2.9-6.9,4C-389.3,174.4-388.6,172.1-387.5,170.1z M-390.8,181.7
		c3-1.4,6.6-3.4,10.1-5.8c1.3-0.9,2.4-2,3.5-2.9c2.3-1.8,4.5-4.1,6.3-4.1c0,0,0,0,0,0c4.9,0,11.2,8,13.4,16.3
		c1.4,5.5-0.5,10.3-1.9,12.2c-0.8-1.7-2.7-5.2-7.2-3.3c-4.5,2-3.6,6.6-3.2,8.6c0,0.2,0.1,0.5,0.1,0.7c-0.8,0.6-3.3,1.5-7.9-0.6
		c-3.4-1.5-4.8-5.1-6.3-8.9c-1-2.5-2-5.1-3.6-7.3c-1.3-1.7-3.4-3-5.9-3.8c0.5-0.2,1.1-0.5,1.7-0.8C-391.3,182-391,181.9-390.8,181.7
		z M-394.1,173.7c0.5-0.9,1.1-1.8,1.7-2.5c-0.9,2.3-1.4,4.9-1.6,7.7c-0.8,0.4-1.6,0.7-2.2,0.9C-395.7,177.5-395,175.4-394.1,173.7z
		 M-406.7,178.5C-406.7,178.5-406.7,178.5-406.7,178.5c2.4,0,4.9,1.6,6.5,3.7c-1.6,0.3-3,1-4.1,2c-1.7-2-3.9-3.5-6.2-4.2
		C-409.4,179.1-408.1,178.5-406.7,178.5z M-420.3,189.2c0.2-0.4,0.5-0.9,0.8-1.2c-3,12,2,26.5,9.7,36c0,2.4,0,4.6,0.1,6.5
		C-419.3,220.4-427.8,202.8-420.3,189.2z M-409.8,217.3c-8.7-13.5-7.4-27.1-3.9-33.3c0,0,0,0,0-0.1c0.1,0,0.3,0,0.4,0c0,0,0,0,0,0
		c2.5,0,5.2,1.7,6.7,4C-408.7,194.3-409.5,206.5-409.8,217.3z"/>
	<path class="st0" d="M-369.2,218.5c0,1.5,0.7,2.7,1.8,3.4c0.6,0.4,1.3,0.5,2.1,0.5c1,0,2-0.3,3.1-0.9c2.9-1.6,3.5-3.3,4-5.1
		c0.5-1.9,1.2-6.4,0.7-10.2c-0.1-1.1-1.1-1.8-2.2-1.7c-1.1,0.1-1.8,1.1-1.7,2.2c0.4,3.3-0.2,7.4-0.6,8.8c-0.3,1.3-0.5,1.8-2.1,2.7
		c-0.5,0.3-0.9,0.4-1.1,0.4c0-0.6,0.1-1.5,0.2-2.4c0.2-1.6,0.5-3.5,0.4-5.8c0-1.1-1-1.9-2-1.9c-1.1,0-1.9,1-1.9,2
		c0.1,2-0.2,3.6-0.4,5.1C-369,216.6-369.2,217.6-369.2,218.5z"/>
	<path class="st0" d="M-384.1,247c0.3,0.2,0.7,0.3,1.1,0.3c0.6,0,1.2-0.3,1.6-0.9c4.2-6.2,5-17.7,2.6-37.2c-0.1-1.1-1.1-1.8-2.2-1.7
		c-1.1,0.1-1.8,1.1-1.7,2.2c0.8,6.6,3.3,26.8-2,34.6C-385.3,245.2-385,246.4-384.1,247z"/>
</g>
</svg>
