<?xml version="1.0" encoding="utf-8"?>
<!-- Generator: Adobe Illustrator 19.0.0, SVG Export Plug-In . SVG Version: 6.00 Build 0)  -->
<svg version="1.1" id="Layer_1" xmlns="http://www.w3.org/2000/svg" xmlns:xlink="http://www.w3.org/1999/xlink" x="0px" y="0px"
	 viewBox="-15 232 90.2 91" style="enable-background:new -15 232 90.2 91;" xml:space="preserve">
<style type="text/css">
	.st0{fill:#313739;}
</style>
<g>
	<path class="st0" d="M72.6,233H8.4c-0.8,0-1.4,0.6-1.4,1.4v64.3c0,0.8,0.6,1.4,1.4,1.4h64.3c0.8,0,1.4-0.6,1.4-1.4v-64.3
		C74,233.6,73.4,233,72.6,233z M46.7,271c-0.8,0-1.4,0.6-1.4,1.4v17H32.9v-12c0-0.8-0.6-1.4-1.4-1.4H9.8v-24.7h19.2
		c0.8,0,1.4-0.6,1.4-1.4v-14.2h16.9v12.4c0,0.8,0.6,1.4,1.4,1.4h5v10.9c0,0.8,0.6,1.4,1.4,1.4h16.3v9.2L46.7,271L46.7,271z
		 M71.2,259H56.3v-10.9c0-0.8-0.6-1.4-1.4-1.4h-5v-11h21.2V259z M27.6,235.8v12.8H9.8v-12.8H27.6z M9.8,278.7h20.3v12
		c0,0.8,0.6,1.4,1.4,1.4H56v5.2H9.8V278.7z M58.8,297.3v-6.5c0-0.8-0.6-1.4-1.4-1.4h-9.4v-15.6h23.2v23.5H58.8L58.8,297.3z"/>
	<path class="st0" d="M62.7,305.5c-0.6-0.5-1.5-0.4-1.9,0.2c-0.5,0.6-0.4,1.5,0.2,1.9l5,4.1H-4.7v-69.9l4.1,5
		c0.3,0.3,0.7,0.5,1.1,0.5c0.3,0,0.6-0.1,0.9-0.3c0.6-0.5,0.7-1.4,0.2-1.9l-6.5-7.9c0,0,0,0-0.1,0c-0.3-0.3-0.6-0.5-1-0.5
		c-0.4,0-0.8,0.2-1,0.5c0,0,0,0-0.1,0l-6.5,7.9c-0.5,0.6-0.4,1.4,0.2,1.9c0.6,0.5,1.5,0.4,1.9-0.2l4.1-5v71.3c0,0.8,0.6,1.4,1.4,1.4
		h72l-5,4.1c-0.6,0.5-0.7,1.4-0.2,1.9c0.3,0.3,0.7,0.5,1.1,0.5c0.3,0,0.6-0.1,0.9-0.3l7.9-6.5c0.3-0.3,0.5-0.7,0.5-1.1
		c0-0.4-0.2-0.8-0.5-1.1L62.7,305.5z"/>
</g>
</svg>
