<?xml version="1.0" encoding="utf-8"?>
<!-- Generator: Adobe Illustrator 19.0.0, SVG Export Plug-In . SVG Version: 6.00 Build 0)  -->
<svg version="1.1" id="Isolation_Mode" xmlns="http://www.w3.org/2000/svg" xmlns:xlink="http://www.w3.org/1999/xlink" x="0px"
	 y="0px" viewBox="-426.7 218 69.3 102" style="enable-background:new -426.7 218 69.3 102;" xml:space="preserve">
<style type="text/css">
	.st0{fill:#353535;stroke:#000000;stroke-width:3;stroke-linecap:round;stroke-linejoin:round;}
	.st1{fill:#353535;}
</style>
<g>
	<path class="st0" d="M-406.8,265.8"/>
	<path class="st1" d="M-394.9,270.3c-0.5,0-1-0.3-1.4-0.5l-8.6-8.6c-0.8-0.8-0.8-1.9,0-2.7c0.8-0.8,1.9-0.8,2.7,0l6.6,6.6l11.5-27.7
		c0.4-1,1.5-1.4,2.5-1c1,0.4,1.4,1.5,1,2.5l-12.5,30.3c-0.3,0.6-0.8,1-1.4,1.1C-394.7,270.3-394.8,270.3-394.9,270.3z"/>
	<path class="st1" d="M-376.6,303.4c-2.3-0.5-5.2-1-8.5-1.3c8.8-11.1,25.3-33.9,25.3-48.9c0-17.8-14.4-32.2-32.2-32.2
		c-17.8,0-32.2,14.4-32.2,32.2c0,15,16.4,37.8,25.3,48.9c-3.2,0.3-6.2,0.6-8.5,1.1c-2,0.5-7.3,1.8-7.3,6.2c0,4.7,6.2,5.9,8.6,6.4
		c3.8,0.8,8.8,1.1,14.1,1.1s10.4-0.4,14.1-1.1c2.4-0.5,8.6-1.8,8.6-6.4C-369.3,305-374.8,303.7-376.6,303.4z M-392,224.8
		c15.7,0,28.4,12.8,28.4,28.4c0,16.4-22.5,44.3-28.4,51.4c-5.9-7.1-28.4-35-28.4-51.4C-420.4,237.5-407.7,224.8-392,224.8z
		 M-392,313.2c-10.5,0-18.9-1.6-18.9-3.8c0-1.8,6.4-3.3,14.9-3.7c1.4,1.8,2.4,2.8,2.5,3c0.4,0.4,0.9,0.6,1.4,0.6s1-0.3,1.4-0.6
		c0.3-0.3,1.1-1.3,2.5-3c8.7,0.4,15.2,1.9,15.2,3.7C-373.1,311.6-381.5,313.2-392,313.2z"/>
</g>
</svg>
