<?xml version="1.0" encoding="utf-8"?>
<!-- Generator: Adobe Illustrator 19.0.0, SVG Export Plug-In . SVG Version: 6.00 Build 0)  -->
<svg version="1.1" id="Layer_1" xmlns="http://www.w3.org/2000/svg" xmlns:xlink="http://www.w3.org/1999/xlink" x="0px" y="0px"
	 viewBox="0 0 153 130" style="enable-background:new 0 0 153 130;" xml:space="preserve">
<style type="text/css">
	.st0{fill-rule:evenodd;clip-rule:evenodd;fill:#394262;}
	.st1{fill-rule:evenodd;clip-rule:evenodd;fill:#777B93;}
	.st2{fill-rule:evenodd;clip-rule:evenodd;fill:#626882;}
	.st3{fill-rule:evenodd;clip-rule:evenodd;fill:#8C8FA4;}
	.st4{fill-rule:evenodd;clip-rule:evenodd;fill:#243052;}
	.st5{fill-rule:evenodd;clip-rule:evenodd;fill:#4D5471;}
	.st6{fill-rule:evenodd;clip-rule:evenodd;fill:#375182;}
	.st7{fill-rule:evenodd;clip-rule:evenodd;fill:#FFFFFF;}
	.st8{fill-rule:evenodd;clip-rule:evenodd;fill:#263A5D;}
	.st9{fill:#243052;}
</style>
<g>
	<polygon class="st0" points="67.3,20.5 71.1,20.5 71.1,24.4 67.3,24.4 67.3,20.5 	"/>
	<polygon class="st0" points="67.3,59.2 71.1,59.2 71.1,63.1 67.3,63.1 67.3,59.2 	"/>
	<polygon class="st0" points="49.3,59.2 53.2,59.2 53.2,63.1 49.3,63.1 49.3,59.2 	"/>
	<polygon class="st1" points="67.3,36 71.1,36 71.1,39.9 67.3,39.9 67.3,36 	"/>
	<polygon class="st1" points="89.1,55.4 93,55.4 93,59.2 89.1,59.2 89.1,55.4 	"/>
	<polygon class="st1" points="49.3,36 53.2,36 53.2,39.9 49.3,39.9 49.3,36 	"/>
	<polygon class="st2" points="67.3,16.6 71.1,16.6 71.1,20.5 67.3,20.5 67.3,16.6 	"/>
	<polygon class="st2" points="67.3,28.3 71.1,28.3 71.1,32.1 67.3,32.1 67.3,28.3 	"/>
	<polygon class="st1" points="89.1,47.6 93,47.6 93,51.5 89.1,51.5 89.1,47.6 	"/>
	<polygon class="st1" points="67.3,67 71.1,67 71.1,70.8 67.3,70.8 67.3,67 	"/>
	<polygon class="st3" points="49.3,67 53.2,67 53.2,70.8 49.3,70.8 49.3,67 	"/>
	<polygon class="st0" points="40.4,67 44.3,67 44.3,70.8 40.4,70.8 40.4,67 	"/>
	<polygon class="st0" points="67.3,43.8 71.1,43.8 71.1,47.7 67.3,47.7 67.3,43.8 	"/>
	<polygon class="st0" points="67.3,8.9 71.1,8.9 71.1,12.8 67.3,12.8 67.3,8.9 	"/>
	<polygon class="st0" points="89.1,63.1 93,63.1 93,67 89.1,67 89.1,63.1 	"/>
	<polygon class="st0" points="49.3,43.8 53.2,43.8 53.2,47.7 49.3,47.7 49.3,43.8 	"/>
	<polygon class="st1" points="67.3,51.5 71.1,51.5 71.1,55.4 67.3,55.4 67.3,51.5 	"/>
	<polygon class="st1" points="89.1,70.8 93,70.8 93,74.7 89.1,74.7 89.1,70.8 	"/>
	<polygon class="st1" points="21.1,70.8 25,70.8 25,74.7 21.1,74.7 21.1,70.8 	"/>
	<polygon class="st1" points="118.7,70.8 122.6,70.8 122.6,74.7 118.7,74.7 118.7,70.8 	"/>
	<polygon class="st1" points="49.3,51.5 53.2,51.5 53.2,55.4 49.3,55.4 49.3,51.5 	"/>
	<polygon class="st0" points="67.3,24.4 71.1,24.4 71.1,28.3 67.3,28.3 67.3,24.4 	"/>
	<polygon class="st4" points="89.1,43.7 93,43.7 93,47.6 89.1,47.6 89.1,43.7 	"/>
	<polygon class="st4" points="67.3,63.1 71.1,63.1 71.1,67 67.3,67 67.3,63.1 	"/>
	<polygon class="st4" points="49.3,63.1 53.2,63.1 53.2,67 49.3,67 49.3,63.1 	"/>
	<polygon class="st2" points="67.3,39.9 71.1,39.9 71.1,43.8 67.3,43.8 67.3,39.9 	"/>
	<polygon class="st2" points="67.3,5 71.1,5 71.1,8.9 67.3,8.9 67.3,5 	"/>
	<polygon class="st5" points="89.1,59.3 93,59.3 93,63.1 89.1,63.1 89.1,59.3 	"/>
	<polygon class="st3" points="49.3,39.9 53.2,39.9 53.2,43.8 49.3,43.8 49.3,39.9 	"/>
	<polygon class="st4" points="67.3,32.2 71.1,32.2 71.1,36 67.3,36 67.3,32.2 	"/>
	<polygon class="st4" points="89.1,51.5 93,51.5 93,55.4 89.1,55.4 89.1,51.5 	"/>
	<polygon class="st4" points="49.3,32.2 53.2,32.2 53.2,36 49.3,36 49.3,32.2 	"/>
	<polygon class="st4" points="67.3,12.7 71.1,12.7 71.1,16.6 67.3,16.6 67.3,12.7 	"/>
	<polygon class="st4" points="67.3,70.8 71.1,70.8 71.1,74.7 67.3,74.7 67.3,70.8 	"/>
	<polygon class="st4" points="30.6,70.8 34.5,70.8 34.5,74.7 30.6,74.7 30.6,70.8 	"/>
	<polygon class="st4" points="105.8,70.8 109.6,70.8 109.6,74.7 105.8,74.7 105.8,70.8 	"/>
	<polygon class="st4" points="49.3,70.8 53.2,70.8 53.2,74.7 49.3,74.7 49.3,70.8 	"/>
	<polygon class="st4" points="67.3,47.7 71.1,47.7 71.1,51.6 67.3,51.6 67.3,47.7 	"/>
	<polygon class="st4" points="89.1,67 93,67 93,70.9 89.1,70.9 89.1,67 	"/>
	<polygon class="st4" points="49.3,47.7 53.2,47.7 53.2,51.6 49.3,51.6 49.3,47.7 	"/>
	<polygon class="st2" points="67.3,55.4 71.1,55.4 71.1,59.3 67.3,59.3 67.3,55.4 	"/>
	<polygon class="st2" points="49.3,55.4 53.2,55.4 53.2,59.3 49.3,59.3 49.3,55.4 	"/>
	<polygon class="st0" points="75,20.5 78.9,20.5 78.9,24.4 75,24.4 75,20.5 	"/>
	<polygon class="st0" points="75,59.2 78.9,59.2 78.9,63.1 75,63.1 75,59.2 	"/>
	<polygon class="st0" points="57.1,59.2 61,59.2 61,63.1 57.1,63.1 57.1,59.2 	"/>
	<polygon class="st4" points="75,36 78.9,36 78.9,39.9 75,39.9 75,36 	"/>
	<polygon class="st4" points="96.9,55.4 100.8,55.4 100.8,59.2 96.9,59.2 96.9,55.4 	"/>
	<polygon class="st4" points="57.1,36 61,36 61,39.9 57.1,39.9 57.1,36 	"/>
	<polygon class="st5" points="75,16.6 78.9,16.6 78.9,20.5 75,20.5 75,16.6 	"/>
	<polygon class="st4" points="75,28.3 78.9,28.3 78.9,32.1 75,32.1 75,28.3 	"/>
	<polygon class="st4" points="96.9,47.6 100.8,47.6 100.8,51.5 96.9,51.5 96.9,47.6 	"/>
	<polygon class="st4" points="75,67 78.9,67 78.9,70.8 75,70.8 75,67 	"/>
	<polygon class="st4" points="57.1,67 61,67 61,70.8 57.1,70.8 57.1,67 	"/>
	<polygon class="st3" points="75,43.8 78.9,43.8 78.9,47.7 75,47.7 75,43.8 	"/>
	<polygon class="st1" points="75,8.9 78.9,8.9 78.9,12.8 75,12.8 75,8.9 	"/>
	<polygon class="st1" points="96.9,63.1 100.8,63.1 100.8,67 96.9,67 96.9,63.1 	"/>
	<polygon class="st0" points="57.1,43.8 61,43.8 61,47.7 57.1,47.7 57.1,43.8 	"/>
	<polygon class="st1" points="75,51.5 78.9,51.5 78.9,55.4 75,55.4 75,51.5 	"/>
	<polygon class="st2" points="96.9,70.8 100.8,70.8 100.8,74.7 96.9,74.7 96.9,70.8 	"/>
	<polygon class="st1" points="57.1,51.5 61,51.5 61,55.4 57.1,55.4 57.1,51.5 	"/>
	<polygon class="st1" points="75,24.4 78.9,24.4 78.9,28.3 75,28.3 75,24.4 	"/>
	<polygon class="st1" points="96.9,43.7 100.8,43.7 100.8,47.6 96.9,47.6 96.9,43.7 	"/>
	<polygon class="st1" points="75,63.1 78.9,63.1 78.9,67 75,67 75,63.1 	"/>
	<polygon class="st1" points="57.1,63.1 61,63.1 61,67 57.1,67 57.1,63.1 	"/>
	<polygon class="st2" points="75,39.9 78.9,39.9 78.9,43.8 75,43.8 75,39.9 	"/>
	<polygon class="st5" points="75,5 78.9,5 78.9,8.9 75,8.9 75,5 	"/>
	<polygon class="st5" points="96.9,59.3 100.8,59.3 100.8,63.1 96.9,63.1 96.9,59.3 	"/>
	<polygon class="st0" points="57.1,39.9 61,39.9 61,43.8 57.1,43.8 57.1,39.9 	"/>
	<polygon class="st0" points="75,32.2 78.9,32.2 78.9,36 75,36 75,32.2 	"/>
	<polygon class="st0" points="96.9,51.5 100.8,51.5 100.8,55.4 96.9,55.4 96.9,51.5 	"/>
	<polygon class="st0" points="57.1,32.2 61,32.2 61,36 57.1,36 57.1,32.2 	"/>
	<polygon class="st0" points="75,12.7 78.9,12.7 78.9,16.6 75,16.6 75,12.7 	"/>
	<polygon class="st5" points="75,70.8 78.9,70.8 78.9,74.7 75,74.7 75,70.8 	"/>
	<polygon class="st0" points="36.5,70.8 40.4,70.8 40.4,74.7 36.5,74.7 36.5,70.8 	"/>
	<polygon class="st0" points="57.1,70.8 61,70.8 61,74.7 57.1,74.7 57.1,70.8 	"/>
	<polygon class="st0" points="75,47.7 78.9,47.7 78.9,51.6 75,51.6 75,47.7 	"/>
	<polygon class="st6" points="96.9,67 100.8,67 100.8,70.9 96.9,70.9 96.9,67 	"/>
	<polygon class="st0" points="96.9,67 100.8,67 100.8,70.9 96.9,70.9 96.9,67 	"/>
	<polygon class="st0" points="105.8,67 109.6,67 109.6,70.9 105.8,70.9 105.8,67 	"/>
	<polygon class="st0" points="57.1,47.7 61,47.7 61,51.6 57.1,51.6 57.1,47.7 	"/>
	<polygon class="st2" points="75,55.4 78.9,55.4 78.9,59.3 75,59.3 75,55.4 	"/>
	<polygon class="st2" points="57.1,55.4 61,55.4 61,59.3 57.1,59.3 57.1,55.4 	"/>
	<polygon class="st4" points="71.1,20.5 75,20.5 75,24.4 71.1,24.4 71.1,20.5 	"/>
	<polygon class="st4" points="71.1,59.2 75,59.2 75,63.1 71.1,63.1 71.1,59.2 	"/>
	<polygon class="st4" points="53.2,59.2 57.1,59.2 57.1,63.1 53.2,63.1 53.2,59.2 	"/>
	<polygon class="st0" points="71.1,36 75,36 75,39.9 71.1,39.9 71.1,36 	"/>
	<polygon class="st0" points="93,55.4 96.9,55.4 96.9,59.2 93,59.2 93,55.4 	"/>
	<polygon class="st0" points="53.2,36 57.1,36 57.1,39.9 53.2,39.9 53.2,36 	"/>
	<polygon class="st0" points="71.1,16.6 75,16.6 75,20.5 71.1,20.5 71.1,16.6 	"/>
	<polygon class="st7" points="71.1,28.3 75,28.3 75,32.1 71.1,32.1 71.1,28.3 	"/>
	<polygon class="st7" points="93,47.6 96.9,47.6 96.9,51.5 93,51.5 93,47.6 	"/>
	<polygon class="st3" points="71.1,67 75,67 75,70.8 71.1,70.8 71.1,67 	"/>
	<polygon class="st1" points="53.2,67 57.1,67 57.1,70.8 53.2,70.8 53.2,67 	"/>
	<polygon class="st2" points="44.3,67 48.2,67 48.2,70.8 44.3,70.8 44.3,67 	"/>
	<polygon class="st0" points="71.1,43.8 75,43.8 75,47.7 71.1,47.7 71.1,43.8 	"/>
	<polygon class="st0" points="71.1,8.9 75,8.9 75,12.8 71.1,12.8 71.1,8.9 	"/>
	<polygon class="st0" points="93,63.1 96.9,63.1 96.9,67 93,67 93,63.1 	"/>
	<polygon class="st5" points="53.2,43.8 57.1,43.8 57.1,47.7 53.2,47.7 53.2,43.8 	"/>
	<polygon class="st4" points="71.1,51.5 75,51.5 75,55.4 71.1,55.4 71.1,51.5 	"/>
	<polygon class="st4" points="93,70.8 96.9,70.8 96.9,74.7 93,74.7 93,70.8 	"/>
	<polygon class="st4" points="122.6,70.8 126.4,70.8 126.4,74.7 122.6,74.7 122.6,70.8 	"/>
	<polygon class="st4" points="53.2,51.5 57.1,51.5 57.1,55.4 53.2,55.4 53.2,51.5 	"/>
	<polygon class="st0" points="71.1,24.4 75,24.4 75,28.3 71.1,28.3 71.1,24.4 	"/>
	<polygon class="st2" points="93,43.7 96.9,43.7 96.9,47.6 93,47.6 93,43.7 	"/>
	<polygon class="st0" points="71.1,63.1 75,63.1 75,67 71.1,67 71.1,63.1 	"/>
	<polygon class="st0" points="53.2,63.1 57.1,63.1 57.1,67 53.2,67 53.2,63.1 	"/>
	<polygon class="st4" points="71.1,39.9 75,39.9 75,43.8 71.1,43.8 71.1,39.9 	"/>
	<polygon class="st4" points="71.1,5 75,5 75,8.9 71.1,8.9 71.1,5 	"/>
	<polygon class="st4" points="93,59.3 96.9,59.3 96.9,63.1 93,63.1 93,59.3 	"/>
	<polygon class="st4" points="53.2,39.9 57.1,39.9 57.1,43.8 53.2,43.8 53.2,39.9 	"/>
	<polygon class="st3" points="71.1,32.2 75,32.2 75,36 71.1,36 71.1,32.2 	"/>
	<polygon class="st2" points="93,51.5 96.9,51.5 96.9,55.4 93,55.4 93,51.5 	"/>
	<polygon class="st3" points="53.2,32.2 57.1,32.2 57.1,36 53.2,36 53.2,32.2 	"/>
	<polygon class="st2" points="71.1,12.7 75,12.7 75,16.6 71.1,16.6 71.1,12.7 	"/>
	<polygon class="st0" points="71.1,70.8 75,70.8 75,74.7 71.1,74.7 71.1,70.8 	"/>
	<polygon class="st1" points="109.6,70.8 113.5,70.8 113.5,74.7 109.6,74.7 109.6,70.8 	"/>
	<polygon class="st2" points="53.2,70.8 57.1,70.8 57.1,74.7 53.2,74.7 53.2,70.8 	"/>
	<polygon class="st7" points="71.1,47.7 75,47.7 75,51.6 71.1,51.6 71.1,47.7 	"/>
	<polygon class="st7" points="93,67 96.9,67 96.9,70.9 93,70.9 93,67 	"/>
	<polygon class="st7" points="53.2,47.7 57.1,47.7 57.1,51.6 53.2,51.6 53.2,47.7 	"/>
	<polygon class="st0" points="71.1,55.4 75,55.4 75,59.3 71.1,59.3 71.1,55.4 	"/>
	<polygon class="st0" points="53.2,55.4 57.1,55.4 57.1,59.3 53.2,59.3 53.2,55.4 	"/>
	<polygon class="st7" points="78.9,20.5 82.8,20.5 82.8,24.4 78.9,24.4 78.9,20.5 	"/>
	<polygon class="st2" points="78.9,59.2 82.8,59.2 82.8,63.1 78.9,63.1 78.9,59.2 	"/>
	<polygon class="st3" points="61,59.2 64.8,59.2 64.8,63.1 61,63.1 61,59.2 	"/>
	<polygon class="st4" points="78.9,36 82.8,36 82.8,39.9 78.9,39.9 78.9,36 	"/>
	<polygon class="st0" points="100.8,55.4 104.6,55.4 104.6,59.2 100.8,59.2 100.8,55.4 	"/>
	<polygon class="st4" points="61,36 64.8,36 64.8,39.9 61,39.9 61,36 	"/>
	<polygon class="st4" points="78.9,16.6 82.8,16.6 82.8,20.5 78.9,20.5 78.9,16.6 	"/>
	<polygon class="st0" points="78.9,28.3 82.8,28.3 82.8,32.1 78.9,32.1 78.9,28.3 	"/>
	<polygon class="st0" points="100.8,47.6 104.6,47.6 104.6,51.5 100.8,51.5 100.8,47.6 	"/>
	<polygon class="st5" points="78.9,67 82.8,67 82.8,70.8 78.9,70.8 78.9,67 	"/>
	<polygon class="st0" points="61,67 64.8,67 64.8,70.8 61,70.8 61,67 	"/>
	<polygon class="st0" points="30.8,67 34.6,67 34.6,70.8 30.8,70.8 30.8,67 	"/>
	<polygon class="st0" points="78.9,43.8 82.8,43.8 82.8,47.7 78.9,47.7 78.9,43.8 	"/>
	<polygon class="st7" points="78.9,8.9 82.8,8.9 82.8,12.8 78.9,12.8 78.9,8.9 	"/>
	<polygon class="st5" points="100.8,63.1 104.6,63.1 104.6,67 100.8,67 100.8,63.1 	"/>
	<polygon class="st4" points="61,43.8 64.8,43.8 64.8,47.7 61,47.7 61,43.8 	"/>
	<polygon class="st0" points="78.9,51.5 82.8,51.5 82.8,55.4 78.9,55.4 78.9,51.5 	"/>
	<polygon class="st0" points="100.8,70.8 104.6,70.8 104.6,74.7 100.8,74.7 100.8,70.8 	"/>
	<polygon class="st0" points="61,51.5 64.8,51.5 64.8,55.4 61,55.4 61,51.5 	"/>
	<polygon class="st4" points="78.9,24.4 82.8,24.4 82.8,28.3 78.9,28.3 78.9,24.4 	"/>
	<polygon class="st4" points="100.8,43.7 104.6,43.7 104.6,47.6 100.8,47.6 100.8,43.7 	"/>
	<polygon class="st4" points="78.9,63.1 82.8,63.1 82.8,67 78.9,67 78.9,63.1 	"/>
	<polygon class="st4" points="61,63.1 64.8,63.1 64.8,67 61,67 61,63.1 	"/>
	<polygon class="st3" points="78.9,39.9 82.8,39.9 82.8,43.8 78.9,43.8 78.9,39.9 	"/>
	<polygon class="st1" points="78.9,5 82.8,5 82.8,8.9 78.9,8.9 78.9,5 	"/>
	<polygon class="st1" points="100.8,59.3 104.6,59.3 104.6,63.1 100.8,63.1 100.8,59.3 	"/>
	<polygon class="st1" points="61,39.9 64.8,39.9 64.8,43.8 61,43.8 61,39.9 	"/>
	<polygon class="st5" points="78.9,32.2 82.8,32.2 82.8,36 78.9,36 78.9,32.2 	"/>
	<polygon class="st5" points="100.8,51.5 104.6,51.5 104.6,55.4 100.8,55.4 100.8,51.5 	"/>
	<polygon class="st3" points="61,32.2 64.8,32.2 64.8,36 61,36 61,32.2 	"/>
	<polygon class="st3" points="78.9,12.7 82.8,12.7 82.8,16.6 78.9,16.6 78.9,12.7 	"/>
	<polygon class="st1" points="78.9,70.8 82.8,70.8 82.8,74.7 78.9,74.7 78.9,70.8 	"/>
	<polygon class="st5" points="40.4,70.8 44.3,70.8 44.3,74.7 40.4,74.7 40.4,70.8 	"/>
	<polygon class="st2" points="26.9,70.8 30.8,70.8 30.8,74.7 26.9,74.7 26.9,70.8 	"/>
	<polygon class="st5" points="113.4,70.8 117.3,70.8 117.3,74.7 113.4,74.7 113.4,70.8 	"/>
	<polygon class="st2" points="128.1,70.8 132,70.8 132,74.7 128.1,74.7 128.1,70.8 	"/>
	<polygon class="st5" points="61,70.8 64.8,70.8 64.8,74.7 61,74.7 61,70.8 	"/>
	<polygon class="st4" points="78.9,47.7 82.8,47.7 82.8,51.6 78.9,51.6 78.9,47.7 	"/>
	<polygon class="st8" points="100.8,67 104.6,67 104.6,70.9 100.8,70.9 100.8,67 	"/>
	<polygon class="st4" points="100.8,67 104.6,67 104.6,70.9 100.8,70.9 100.8,67 	"/>
	<polygon class="st4" points="118.7,67 122.5,67 122.5,70.9 118.7,70.9 118.7,67 	"/>
	<polygon class="st4" points="109.6,67 113.5,67 113.5,70.9 109.6,70.9 109.6,67 	"/>
	<polygon class="st4" points="61,47.7 64.8,47.7 64.8,51.6 61,51.6 61,47.7 	"/>
	<polygon class="st4" points="78.9,55.4 82.8,55.4 82.8,59.3 78.9,59.3 78.9,55.4 	"/>
	<polygon class="st4" points="61,55.4 64.8,55.4 64.8,59.3 61,59.3 61,55.4 	"/>
	<polygon class="st1" points="82.8,20.5 86.6,20.5 86.6,24.4 82.8,24.4 82.8,20.5 	"/>
	<polygon class="st3" points="82.8,59.2 86.6,59.2 86.6,63.1 82.8,63.1 82.8,59.2 	"/>
	<polygon class="st0" points="82.8,36 86.6,36 86.6,39.9 82.8,39.9 82.8,36 	"/>
	<polygon class="st0" points="82.8,16.6 86.6,16.6 86.6,20.5 82.8,20.5 82.8,16.6 	"/>
	<polygon class="st1" points="82.8,28.3 86.6,28.3 86.6,32.1 82.8,32.1 82.8,28.3 	"/>
	<polygon class="st3" points="82.8,67 86.6,67 86.6,70.8 82.8,70.8 82.8,67 	"/>
	<polygon class="st5" points="82.8,43.8 86.6,43.8 86.6,47.7 82.8,47.7 82.8,43.8 	"/>
	<polygon class="st0" points="82.8,8.9 86.6,8.9 86.6,12.8 82.8,12.8 82.8,8.9 	"/>
	<polygon class="st4" points="82.8,51.5 86.6,51.5 86.6,55.4 82.8,55.4 82.8,51.5 	"/>
	<polygon class="st2" points="82.8,24.4 86.6,24.4 86.6,28.3 82.8,28.3 82.8,24.4 	"/>
	<polygon class="st2" points="82.8,63.1 86.6,63.1 86.6,67 82.8,67 82.8,63.1 	"/>
	<polygon class="st2" points="82.8,39.9 86.6,39.9 86.6,43.8 82.8,43.8 82.8,39.9 	"/>
	<polygon class="st2" points="82.8,5 86.6,5 86.6,8.9 82.8,8.9 82.8,5 	"/>
	<polygon class="st4" points="82.8,32.2 86.6,32.2 86.6,36 82.8,36 82.8,32.2 	"/>
	<polygon class="st4" points="82.8,12.7 86.6,12.7 86.6,16.6 82.8,16.6 82.8,12.7 	"/>
	<polygon class="st4" points="82.8,70.8 86.6,70.8 86.6,74.7 82.8,74.7 82.8,70.8 	"/>
	<polygon class="st4" points="44.3,70.8 48.1,70.8 48.1,74.7 44.3,74.7 44.3,70.8 	"/>
	<polygon class="st0" points="82.8,47.7 86.6,47.7 86.6,51.6 82.8,51.6 82.8,47.7 	"/>
	<polygon class="st5" points="82.8,55.4 86.6,55.4 86.6,59.3 82.8,59.3 82.8,55.4 	"/>
	<path class="st9" d="M32.3,110.9c0,4.4-1.1,7.9-3.3,10.6c-2.4,2.9-5.7,4.4-10,4.4c-4.4,0-7.7-1.4-10.1-4.3
		c-2.2-2.7-3.3-6.2-3.3-10.7V84.8h2.5v25.1c0,9,3.6,13.5,10.8,13.5c7.2,0,10.8-4.5,10.8-13.5V84.8h2.5V110.9L32.3,110.9z"/>
	<path class="st9" d="M59.7,96.5c0,3.7-1.4,6.7-4.1,9.2c-0.7,0.6-1.6,1.2-2.5,1.7l6.7,17.8l-2.5,0l-6.4-17c-1.5,0.4-3.3,0.6-5.2,0.6
		h-8.1v16.3h-2.5V89c0-1.7,0.6-2.9,1.8-3.8c0.9-0.7,2-1,3.2-1l7.6,0c3.7,0,6.6,1.1,8.9,3.3C58.6,89.9,59.7,92.8,59.7,96.5L59.7,96.5
		z M57,96.5c0-3-0.9-5.4-2.6-7.2c-1.7-1.8-4-2.7-7-2.7h-7.8c-1.5,0.2-2.3,1-2.3,2.5v17.5h9c3.2,0,5.7-0.9,7.6-2.6
		C56.1,102.2,57,99.7,57,96.5L57,96.5z"/>
	<path class="st9" d="M88.1,114.1c0,3.6-1.2,6.3-3.7,8.3c-2.3,1.8-5.2,2.7-8.9,2.7h-8.1c-1.2,0-2.2-0.4-3.2-1.1
		c-1.2-0.9-1.8-2.1-1.8-3.7V88.6h0c0-1.5,0.5-2.6,1.4-3.5c0.9-0.9,2.1-1.3,3.6-1.3l6.9,0c3.3,0,6,0.9,8.3,2.8c2.4,2,3.5,4.6,3.5,7.9
		c0,4.4-2.3,7.4-7,9C85.1,104.9,88.1,108.4,88.1,114.1L88.1,114.1z M83.4,94.7c0-2.6-0.9-4.6-2.6-6.2c-1.2-1.1-2.3-1.8-3.3-2.1
		c-0.6-0.2-1.7-0.3-3.3-0.3h-7c-1.5,0.2-2.3,1-2.3,2.5v14.2h7.3l0,0h1.3c2.7,0,5-0.7,6.8-2C82.4,99.4,83.4,97.3,83.4,94.7L83.4,94.7
		z M85.5,114.1c0-6-3.8-9-11.4-9h-2.4l0,0h-6.9v15.3c0,1.4,0.8,2.2,2.3,2.5H75C82,122.8,85.5,119.9,85.5,114.1L85.5,114.1z"/>
	<path class="st9" d="M117.5,125.2h-2.5v-20H93.3v20h-2.5V99.1c0-4.4,1.1-8,3.3-10.6c2.4-2.9,5.7-4.3,10.1-4.3c4.3,0,7.6,1.5,10,4.4
		c2.2,2.7,3.4,6.2,3.4,10.6V125.2L117.5,125.2z M114.9,102.9V100c0-9-3.6-13.5-10.8-13.5c-7.2,0-10.8,4.5-10.8,13.5v2.9H114.9
		L114.9,102.9z"/>
	<path class="st9" d="M147.5,121.7c0,2.4-1.1,3.6-3.3,3.6c-1.5,0-2.6-0.9-3.5-2.8l-16.6-35.2c-0.2-0.4-0.4-0.6-0.8-0.6
		c-0.5,0-0.8,0.3-0.8,1v37.3h-2.5V88.1c0-2.4,1.1-3.6,3.2-3.6c1.5,0,2.7,0.9,3.5,2.8l16.6,35.1c0.2,0.4,0.4,0.6,0.7,0.6
		c0.5,0,0.8-0.3,0.8-1V84.8h2.5V121.7L147.5,121.7z"/>
</g>
</svg>
